<svg xmlns="http://www.w3.org/2000/svg" width="1024" height="1024" viewBox="0 0 1024 1024" fill="none">
  <defs>
    <linearGradient id="bgGrad" x1="128" y1="80" x2="896" y2="944" gradientUnits="userSpaceOnUse">
      <stop offset="0" stop-color="#0B3C8A"/>
      <stop offset="0.55" stop-color="#0F5CC0"/>
      <stop offset="1" stop-color="#1FA2FF"/>
    </linearGradient>
    <radialGradient id="glow" cx="0" cy="0" r="1" gradientUnits="userSpaceOnUse" gradientTransform="translate(760 780) rotate(90) scale(180 180)">
      <stop stop-color="#7FE7FF" stop-opacity="0.55"/>
      <stop offset="1" stop-color="#7FE7FF" stop-opacity="0"/>
    </radialGradient>
    <filter id="softShadow" x="188" y="186" width="648" height="652" filterUnits="userSpaceOnUse" color-interpolation-filters="sRGB">
      <feFlood flood-opacity="0" result="BackgroundImageFix"/>
      <feColorMatrix in="SourceAlpha" type="matrix" values="0 0 0 0 0 0 0 0 0 0 0 0 0 0 0 0 0 0 127 0" result="hardAlpha"/>
      <feOffset dy="12"/>
      <feGaussianBlur stdDeviation="14"/>
      <feComposite in2="hardAlpha" operator="out"/>
      <feColorMatrix type="matrix" values="0 0 0 0 0.0156863 0 0 0 0 0.141176 0 0 0 0 0.333333 0 0 0 0.35 0"/>
      <feBlend mode="normal" in2="BackgroundImageFix" result="effect1_dropShadow_1_1"/>
      <feBlend mode="normal" in="SourceGraphic" in2="effect1_dropShadow_1_1" result="shape"/>
    </filter>
  </defs>

  <rect x="56" y="56" width="912" height="912" rx="200" fill="url(#bgGrad)"/>
  <circle cx="760" cy="780" r="180" fill="url(#glow)"/>

  <g filter="url(#softShadow)">
    <!-- relay module body -->
    <rect x="240" y="256" width="544" height="544" rx="92" fill="#FFFFFF"/>

    <!-- terminal bars -->
    <rect x="300" y="332" width="424" height="28" rx="14" fill="#D5E8FF"/>
    <rect x="300" y="696" width="424" height="28" rx="14" fill="#D5E8FF"/>

    <!-- 4 relay channels -->
    <rect x="300" y="412" width="84" height="84" rx="20" fill="#0F5CC0"/>
    <rect x="416" y="412" width="84" height="84" rx="20" fill="#0F5CC0"/>
    <rect x="532" y="412" width="84" height="84" rx="20" fill="#0F5CC0"/>
    <rect x="648" y="412" width="84" height="84" rx="20" fill="#0F5CC0"/>

    <!-- active channel highlight -->
    <rect x="648" y="412" width="84" height="84" rx="20" fill="#1FA2FF"/>
    <circle cx="690" cy="454" r="16" fill="#9BD7FF"/>

    <!-- traces / control lines -->
    <path d="M342 548V620" stroke="#0F5CC0" stroke-width="14" stroke-linecap="round"/>
    <path d="M458 548V620" stroke="#0F5CC0" stroke-width="14" stroke-linecap="round"/>
    <path d="M574 548V620" stroke="#0F5CC0" stroke-width="14" stroke-linecap="round"/>
    <path d="M690 548V620" stroke="#1FA2FF" stroke-width="14" stroke-linecap="round"/>

  </g>
</svg>
