<svg xmlns="http://www.w3.org/2000/svg" width="1024" height="1024" viewBox="0 0 1024 1024" fill="none">
  <defs>
    <linearGradient id="bg" x1="80" y1="80" x2="944" y2="944" gradientUnits="userSpaceOnUse">
      <stop offset="0" stop-color="#0A3478"/>
      <stop offset="0.6" stop-color="#0E57B4"/>
      <stop offset="1" stop-color="#1EA0F8"/>
    </linearGradient>
    <filter id="shadow" x="178" y="194" width="668" height="650" filterUnits="userSpaceOnUse" color-interpolation-filters="sRGB">
      <feFlood flood-opacity="0" result="BackgroundImageFix"/>
      <feColorMatrix in="SourceAlpha" type="matrix" values="0 0 0 0 0 0 0 0 0 0 0 0 0 0 0 0 0 0 127 0" result="hardAlpha"/>
      <feOffset dy="10"/>
      <feGaussianBlur stdDeviation="16"/>
      <feComposite in2="hardAlpha" operator="out"/>
      <feColorMatrix type="matrix" values="0 0 0 0 0.0196078 0 0 0 0 0.121569 0 0 0 0 0.294118 0 0 0 0.32 0"/>
      <feBlend mode="normal" in2="BackgroundImageFix" result="effect1_dropShadow_1_1"/>
      <feBlend mode="normal" in="SourceGraphic" in2="effect1_dropShadow_1_1" result="shape"/>
    </filter>
  </defs>

  <rect x="56" y="56" width="912" height="912" rx="210" fill="url(#bg)"/>

  <g opacity="0.25" stroke="#9EDBFF" stroke-width="12" stroke-linecap="round">
    <path d="M180 248L300 180L420 248L300 316L180 248Z"/>
    <path d="M604 308L724 240L844 308L724 376L604 308Z"/>
    <path d="M640 700L760 632L880 700L760 768L640 700Z"/>
    <path d="M220 756L340 688L460 756L340 824L220 756Z"/>
    <path d="M300 316L724 240"/>
    <path d="M420 248L844 308"/>
    <path d="M460 756L760 632"/>
    <path d="M340 688L640 700"/>
  </g>

  <g filter="url(#shadow)">
    <rect x="240" y="256" width="544" height="544" rx="96" fill="#FFFFFF"/>
    <rect x="300" y="332" width="424" height="28" rx="14" fill="#D7EAFF"/>
    <rect x="300" y="696" width="424" height="28" rx="14" fill="#D7EAFF"/>

    <rect x="300" y="412" width="84" height="84" rx="20" fill="#0F5CC0"/>
    <rect x="416" y="412" width="84" height="84" rx="20" fill="#0F5CC0"/>
    <rect x="532" y="412" width="84" height="84" rx="20" fill="#0F5CC0"/>
    <rect x="648" y="412" width="84" height="84" rx="20" fill="#1EA0F8"/>
    <circle cx="690" cy="454" r="16" fill="#BDE6FF"/>

    <path d="M342 548V620" stroke="#0F5CC0" stroke-width="14" stroke-linecap="round"/>
    <path d="M458 548V620" stroke="#0F5CC0" stroke-width="14" stroke-linecap="round"/>
    <path d="M574 548V620" stroke="#0F5CC0" stroke-width="14" stroke-linecap="round"/>
    <path d="M690 548V620" stroke="#1EA0F8" stroke-width="14" stroke-linecap="round"/>
  </g>
</svg>
